<svg xmlns="http://www.w3.org/2000/svg" viewBox="0 0 36 36"><title>Icon-FullColor</title><path d="M35.99978,18.08726A18,18,0,1,1,18.08726.00022a18,18,0,0,1,17.91252,18.087" style="fill:#4a4a68"/><path d="M.00022,17.91274a18,18,0,0,1,35.99956.17452" style="fill:none"/><path d="M35.99978,18.08726a18,18,0,0,1-18.087,17.91252" style="fill:none"/><path d="M19.07068,5.27613A1.1605,1.1605,0,1,1,18.98585,7.595,1.1361,1.1361,0,0,1,17.89571,6.395,1.15087,1.15087,0,0,1,19.07068,5.27613Z" style="fill:#fff"/><path d="M13.1133,11.51663c.197.05527.22641.227.24568.38658a1.121,1.121,0,0,0,1.075,1.09669c.16141.02.43515.047.41183.29391-.01544.16344-.22965.21588-.39977.2307a1.15123,1.15123,0,0,0-1.11128,1.1439c-.02107.15475-.05288.35808-.27506.33609-.16741-.01657-.20237-.20517-.21538-.32893a1.1854,1.1854,0,0,0-1.16454-1.17751c-.14127-.01515-.2934-.06748-.31445-.23164-.02494-.19455.15727-.23049.28312-.24556a1.24688,1.24688,0,0,0,1.222-1.21372C12.88423,11.68105,12.91732,11.51746,13.1133,11.51663Z" style="fill:#fff"/><path d="M25.16034,5.66272c.31091.08721.35726.35813.38767.61a1.76886,1.76886,0,0,0,1.69631,1.73052c.2547.03157.68665.07416.64984.46377-.02436.2579-.36236.34065-.63081.364a1.81658,1.81658,0,0,0-1.75354,1.805c-.03325.2442-.08344.565-.434.53034-.26417-.02614-.31932-.32374-.33986-.519a1.8705,1.8705,0,0,0-1.83758-1.85805c-.22292-.02392-.463-.10648-.49618-.36551-.03936-.307.24816-.36371.44675-.38748a1.96753,1.96753,0,0,0,1.92832-1.9152C24.79888,5.92217,24.85109,5.664,25.16034,5.66272Z" style="fill:#fff"/><circle cx="19.01178" cy="15.37374" r="0.92039" style="fill:#fff"/><path d="M23.25555,21.41459c-3.02277-2.5574-8.82991-.66314-11.38732,2.35965a7.13808,7.13808,0,0,0-1.15237,1.89132.30067.30067,0,0,0,.07481.36634.28628.28628,0,0,0,.37132.0152,6.2967,6.2967,0,0,1,8.29094-.13791" style="fill:#fff"/><path d="M23.25555,21.41459c3.02277,2.55739,2.1166,8.59808-.44081,11.62088a7.138,7.138,0,0,1-1.67431,1.44973.30067.30067,0,0,1-.37367-.01309.28629.28629,0,0,1-.0765-.36368,6.29667,6.29667,0,0,0-1.23733-8.19924" style="fill:#fff"/><path d="M31.918,12.62878a1.033,1.033,0,0,0-1.32672-1.12246c-1.91737.26666-5.2187.74212-8.85894,4.98217A34.9957,34.9957,0,0,0,15.856,26.899c-.10085.28173.42739,1.01511,1.23749,1.7005.78416.66343,1.56591,1.05643,1.85213.9485a34.87065,34.87065,0,0,0,9.38524-7.40586A13.04914,13.04914,0,0,0,31.918,12.62878Zm-6.4719,6.2048a2.12383,2.12383,0,1,1,2.99648-.22792A2.125,2.125,0,0,1,25.44614,18.83358Z" style="fill:#fff"/><path d="M18.94427,29.5663a34.87065,34.87065,0,0,0,9.38524-7.40586,13.04912,13.04912,0,0,0,3.58715-9.51337s.56731,4.02072-4.48776,9.66178c-.92986,1.03765-2.36073,2.25673-3.12818,3.02335-.9926.99153-4.90716,3.78065-6.10975,4.02269a2.00073,2.00073,0,0,0,.45231.18307A.75939.75939,0,0,0,18.94427,29.5663Z" style="fill:#cacacb"/><path d="M1.26524,24.64863a8.46414,8.46414,0,0,0,13.598,3.23407l-.0018-.002c-.10085.28173.42739,1.01511,1.23749,1.70049a4.91456,4.91456,0,0,0,1.47423.91428.63018.63018,0,0,0,.3838.03306,5.08849,5.08849,0,0,1-7.17468,3.96837l0,.00008a18.12053,18.12053,0,0,1-9.517-9.84837Z" style="fill:#fff"/><path d="M17.36625,30.41537a1.15393,1.15393,0,0,0,.20689.08022.63018.63018,0,0,0,.3838.03306l-.00009.01866a5.08845,5.08845,0,0,1-7.1747,3.96835s3.35244.34669,5.03081-1.19337a3.87739,3.87739,0,0,0,1.55329-2.90692Z" style="fill:#cacacb"/></svg>